<svg width="32" height="32" viewBox="0 0 32 32" fill="none" xmlns="http://www.w3.org/2000/svg">
<path d="M24.8958 6H7.11111C6.4975 6 6 6.4975 6 7.11111V24.9028C6.00764 25.511 6.50278 26 7.11111 26H16.6944V18.2653H14.0861V15.2389H16.6833V13.0167C16.6833 10.4333 18.2611 9.02639 20.5722 9.02639C21.3501 9.02389 22.1276 9.06319 22.9014 9.14444V11.8333H21.3056C20.0556 11.8333 19.8083 12.4292 19.8083 13.3028V15.2389H22.8056L22.4167 18.2653H19.8083V26H24.8958C25.504 25.9963 25.9963 25.504 26 24.8958V7.11111C26 6.50014 25.5068 6.00375 24.8958 6Z" fill="white"/>
</svg>
