<svg width="32" height="32" viewBox="0 0 32 32" fill="none" xmlns="http://www.w3.org/2000/svg">
<path d="M12.5475 25.5012C21.6042 25.5012 26.5578 17.9979 26.5578 11.491C26.5578 11.2779 26.5578 11.0657 26.5434 10.8545C27.507 10.1575 28.3389 9.29441 29 8.30571C28.1013 8.70392 27.148 8.96504 26.1718 9.08043C27.1997 8.46507 27.9691 7.4972 28.3366 6.35691C27.3701 6.93051 26.3126 7.33467 25.2099 7.55211C23.3451 5.56923 20.226 5.47352 18.243 7.33832C16.9642 8.541 16.4216 10.333 16.8186 12.043C12.8594 11.8446 9.17072 9.97448 6.6704 6.89835C5.36346 9.1482 6.03104 12.0266 8.19488 13.4715C7.41123 13.4482 6.64477 13.2368 5.96 12.8551C5.96 12.8753 5.96 12.8964 5.96 12.9175C5.96067 15.2615 7.61293 17.2803 9.9104 17.7444C9.1855 17.9421 8.4249 17.971 7.68704 17.8289C8.33206 19.8347 10.1807 21.2089 12.2874 21.2484C10.5437 22.6187 8.38986 23.3626 6.17216 23.3604C5.78038 23.3597 5.38899 23.3359 5 23.2894C7.25178 24.7345 9.8719 25.5009 12.5475 25.4974" fill="white"/>
</svg>
